<?xml version="1.0" standalone="yes"?>
<svg xmlns="http://www.w3.org/2000/svg" width="512" height="512">
<path style="fill:#ffffff; stroke:none;" d="M0 0L0 35L1 35C4.8775 18.2475 18.2474 4.87747 35 1L0 0z"/>
<path style="fill:#9bc5ff; stroke:none;" d="M256 512L256 482L93 482L54 482C47.2134 482 40.4588 482.796 35.1049 477.786C28.0598 471.194 30 460.742 30 452L30 389L30 131L30 61C30 51.5357 27.8118 40.1231 36.0432 33.3943C41.4331 28.9883 48.4937 30 55 30L95 30L256 30L256 0L85 0C61.772 0 32.796 -5.45306 14.0394 11.3009C-0.198245 24.0184 0 40.5297 0 58L0 120L0 399L0 454C0 471.47 -0.19825 487.982 14.0394 500.699C32.796 517.453 61.772 512 85 512L256 512z"/>
<path style="fill:#75b3fd; stroke:none;" d="M256 0L256 30L419 30L458 30C464.787 30 471.541 29.2041 476.895 34.2137C483.94 40.8059 482 51.2581 482 60L482 123L482 381L482 451C482 460.464 484.188 471.877 475.957 478.606C470.567 483.012 463.506 482 457 482L417 482L256 482L256 512L427 512C450.228 512 479.204 517.453 497.961 500.699C512.198 487.982 512 471.47 512 454L512 392L512 113L512 58C512 40.5297 512.198 24.0184 497.961 11.3009C479.204 -5.45312 450.228 0 427 0L256 0z"/>
<path style="fill:#ffffff; stroke:none;" d="M477 0L477 1C493.753 4.87747 507.123 18.2475 511 35L512 35L512 0L477 0z"/>
<path style="fill:#75b3fd; stroke:none;" d="M40 30L41 31L40 30z"/>
<path style="fill:#517ec7; stroke:none;" d="M41.6667 30.3333L42.3333 30.6667L41.6667 30.3333z"/>
<path style="fill:#10307d; stroke:none;" d="M43 30.4684C30.3562 32.9196 30 44.5281 30 55L30 130L30 381L30 447C30 455.419 27.8317 467.603 32.7276 474.985C38.7966 484.135 51.5514 482 61 482L137 482L366 482L437 482C447.555 482 460.768 484.131 471 481.442C483.091 478.265 482 465.867 482 456L482 382L482 126L482 61C482 52.9639 484.059 41.7854 478.442 35.1883C471.764 27.3451 458.164 30 449 30L372 30L150 30L79 30C67.4628 30 54.3408 28.2697 43 30.4684z"/>
<path style="fill:#517ec7; stroke:none;" d="M471 30L472 31L471 30M38 31L39 32L38 31M36 32L37 33L36 32M475 32L476 33L475 32M35 33L36 34L35 33M34 34L35 35L34 34M33 35L34 36L33 35M32 36L33 37L32 36M479 36L480 37L479 36M31 38L32 39L31 38z"/>
<path style="fill:#75b3fd; stroke:none;" d="M30 40L31 41L30 40z"/>
<path style="fill:#517ec7; stroke:none;" d="M481 40L482 41L481 40M30.3333 41.6667L30.6667 42.3333L30.3333 41.6667M101.667 121.333L102.333 121.667L101.667 121.333z"/>
<path style="fill:#75b3fd; stroke:none;" d="M103.667 121.333L104.333 121.667L103.667 121.333z"/>
<path style="fill:#9bc5ff; stroke:none;" d="M121 271C161.427 271 212.987 280.133 245.999 251.7C261.064 238.724 256 216.208 256 198L256 165C256 160.194 256.93 154.341 254.486 150C233.892 113.412 178.543 121 144 121C131.355 121 117.49 119.408 105 121.44C84.6632 124.748 91 156.018 91 171L91 331C91 345.233 90.0936 359.804 91.0895 374C91.5352 380.353 93.6795 386.621 100.001 389.296C113.311 394.929 120.859 382.508 120.996 371C121.393 337.677 121 304.325 121 271z"/>
<path style="fill:#75b3fd; stroke:none;" d="M198 121L198 122L201 122L198 121z"/>
<path style="fill:#517ec7; stroke:none;" d="M201 121L201 122L206 122L201 121M369 121L369 122L374 122L369 121z"/>
<path style="fill:#75b3fd; stroke:none;" d="M331 211C324.324 211 316.248 209.823 310.001 212.653C299.585 217.37 298.548 231.993 308.015 238.272C314.37 242.487 323.768 241 331 241L331 356C331 368.002 327.891 390.653 346 390.653C364.109 390.653 361 368.002 361 356L361 241C375.509 241 398.649 245.393 411.999 239.347C421.949 234.841 423.476 221.138 414.956 214.43C409.894 210.444 403.054 211 397 211L361 211C361 196.632 354.919 164.305 367.043 154.394C379.371 144.316 422.666 162.2 420.609 135C419.714 123.165 408.673 121.004 399 121C381.338 120.993 362.787 119.521 348.015 131.04C324.655 149.255 331 184.985 331 211z"/>
<path style="fill:#517ec7; stroke:none;" d="M408.667 121.333L409.333 121.667L408.667 121.333M99 122L100 123L99 122z"/>
<path style="fill:#75b3fd; stroke:none;" d="M208 122L209 123L208 122z"/>
<path style="fill:#517ec7; stroke:none;" d="M209 122L209 123L212 123L209 122M364.667 122.333L365.333 122.667L364.667 122.333M412 122L413 123L412 122M97 123L98 124L97 123M214.667 123.333L215.333 123.667L214.667 123.333M361.667 123.333L362.333 123.667L361.667 123.333M96 124L97 125L96 124z"/>
<path style="fill:#75b3fd; stroke:none;" d="M217 124L218 125L217 124z"/>
<path style="fill:#517ec7; stroke:none;" d="M218 124L219 125L218 124M358.667 124.333L359.333 124.667L358.667 124.333M415 124L416 125L415 124z"/>
<path style="fill:#75b3fd; stroke:none;" d="M95 125L96 126L95 125M220 125L221 126L220 125z"/>
<path style="fill:#517ec7; stroke:none;" d="M221 125L222 126L221 125M356 125L357 126L356 125M416 125L417 126L416 125M94 126L95 127L94 126z"/>
<path style="fill:#75b3fd; stroke:none;" d="M223 126L224 127L223 126z"/>
<path style="fill:#517ec7; stroke:none;" d="M224 126L225 127L224 126M417 126L418 127L417 126M93 127L94 128L93 127z"/>
<path style="fill:#75b3fd; stroke:none;" d="M225 127L226 128L225 127z"/>
<path style="fill:#517ec7; stroke:none;" d="M226 127L227 128L226 127M353 127L354 128L353 127z"/>
<path style="fill:#75b3fd; stroke:none;" d="M227 128L228 129L227 128z"/>
<path style="fill:#517ec7; stroke:none;" d="M228 128L229 129L228 128M351 128L352 129L351 128M92 129L93 130L92 129M230 129L231 130L230 129M419 129L420 130L419 129z"/>
<path style="fill:#75b3fd; stroke:none;" d="M231 130L232 131L231 130z"/>
<path style="fill:#517ec7; stroke:none;" d="M232 130L233 131L232 130M348 130L349 131L348 130M91.3333 131.667L91.6667 132.333L91.3333 131.667z"/>
<path style="fill:#75b3fd; stroke:none;" d="M233 131L234 132L233 131z"/>
<path style="fill:#517ec7; stroke:none;" d="M347 131L348 132L347 131M235 132L236 133L235 132M346 132L347 133L346 132M420.333 132.667L420.667 133.333L420.333 132.667z"/>
<path style="fill:#75b3fd; stroke:none;" d="M91.3333 133.667L91.6667 134.333L91.3333 133.667z"/>
<path style="fill:#517ec7; stroke:none;" d="M237 133L238 134L237 133M238 134L239 135L238 134z"/>
<path style="fill:#75b3fd; stroke:none;" d="M239 135L240 136L239 135z"/>
<path style="fill:#517ec7; stroke:none;" d="M241 136L242 137L241 136M342 136L343 137L342 136M242 137L243 138L242 137M341 137L342 138L341 137z"/>
<path style="fill:#75b3fd; stroke:none;" d="M243 138L244 139L243 138z"/>
<path style="fill:#517ec7; stroke:none;" d="M340 138L341 139L340 138M420.333 138.667L420.667 139.333L420.333 138.667z"/>
<path style="fill:#75b3fd; stroke:none;" d="M244 139L245 140L244 139z"/>
<path style="fill:#517ec7; stroke:none;" d="M338 141L339 142L338 141M248 142L249 143L248 142M419 142L420 143L419 142M249 143L250 144L249 143M337 143L338 144L337 143M250 144L251 145L250 144M417 145L418 146L417 145M335 146L336 147L335 146M416 146L417 147L416 146z"/>
<path style="fill:#75b3fd; stroke:none;" d="M252 147L253 148L252 147z"/>
<path style="fill:#517ec7; stroke:none;" d="M415 147L416 148L415 147M253 148L254 149L253 148M334.333 148.667L334.667 149.333L334.333 148.667M254 149L255 150L254 149M412 149L413 150L412 149M255 150L256 151L255 150M408.667 150.333L409.333 150.667L408.667 150.333z"/>
<path style="fill:#10307d; stroke:none;" d="M121 151L121 241L180 241C192.676 241 206.593 241.627 218 235.12C248.39 217.783 247.841 169.987 215 155.349C203.488 150.218 190.291 151 178 151L121 151z"/>
<path style="fill:#517ec7; stroke:none;" d="M198 151L198 152L203 152L198 151z"/>
<path style="fill:#75b3fd; stroke:none;" d="M203.667 151.333L204.333 151.667L203.667 151.333z"/>
<path style="fill:#517ec7; stroke:none;" d="M333.333 151.667L333.667 152.333L333.333 151.667M371.667 151.333L372.333 151.667L371.667 151.333M206.667 152.333L207.333 152.667L206.667 152.333z"/>
<path style="fill:#75b3fd; stroke:none;" d="M256 152L256 240L257 240C272.573 214.642 278.847 175.857 256 152z"/>
<path style="fill:#517ec7; stroke:none;" d="M369 152L370 153L369 152M209.667 153.333L210.333 153.667L209.667 153.333z"/>
<path style="fill:#75b3fd; stroke:none;" d="M211 153L212 154L211 153z"/>
<path style="fill:#517ec7; stroke:none;" d="M257 153L258 154L257 153M367 153L368 154L367 153M213 154L214 155L213 154M332.333 154.667L332.667 155.333L332.333 154.667M366 154L367 155L366 154M215 155L216 156L215 155M365 155L366 156L365 155z"/>
<path style="fill:#75b3fd; stroke:none;" d="M217 156L218 157L217 156z"/>
<path style="fill:#517ec7; stroke:none;" d="M259 156L260 157L259 156M364 156L365 157L364 156z"/>
<path style="fill:#75b3fd; stroke:none;" d="M219 157L220 158L219 157z"/>
<path style="fill:#517ec7; stroke:none;" d="M363 157L364 158L363 157M220 158L221 159L220 158z"/>
<path style="fill:#75b3fd; stroke:none;" d="M221 158L222 159L221 158M222 159L223 160L222 159z"/>
<path style="fill:#517ec7; stroke:none;" d="M261 159L262 160L261 159M331 159L331 164L332 164L331 159M362 159L363 160L362 159M223 160L224 161L223 160M224 161L225 162L224 161M361.333 161.667L361.667 162.333L361.333 161.667M225 162L226 163L225 162z"/>
<path style="fill:#75b3fd; stroke:none;" d="M227 163L228 164L227 163z"/>
<path style="fill:#517ec7; stroke:none;" d="M263 163L264 164L263 163z"/>
<path style="fill:#75b3fd; stroke:none;" d="M228 164L229 165L228 164z"/>
<path style="fill:#517ec7; stroke:none;" d="M264 165L265 166L264 165M229 166L230 167L229 166M230 167L231 168L230 167M265 167L266 168L265 167M231 168L232 169L231 168z"/>
<path style="fill:#75b3fd; stroke:none;" d="M232 169L233 170L232 169M233 170L234 171L233 170z"/>
<path style="fill:#517ec7; stroke:none;" d="M266 170L267 171L266 170M233 171L234 172L233 171z"/>
<path style="fill:#75b3fd; stroke:none;" d="M234 172L235 173L234 172z"/>
<path style="fill:#517ec7; stroke:none;" d="M267.333 172.667L267.667 173.333L267.333 172.667z"/>
<path style="fill:#75b3fd; stroke:none;" d="M235 174L236 175L235 174z"/>
<path style="fill:#517ec7; stroke:none;" d="M236 176L237 177L236 176M268.333 176.667L268.667 177.333L268.333 176.667M237 178L238 179L237 178z"/>
<path style="fill:#75b3fd; stroke:none;" d="M238 180L239 181L238 180z"/>
<path style="fill:#517ec7; stroke:none;" d="M269.333 180.667L269.667 181.333L269.333 180.667M238.333 181.667L238.667 182.333L238.333 181.667M239.333 184.667L239.667 185.333L239.333 184.667M270 185L270 188L271 188L270 185z"/>
<path style="fill:#75b3fd; stroke:none;" d="M240.333 187.667L240.667 188.333L240.333 187.667z"/>
<path style="fill:#517ec7; stroke:none;" d="M240 189L240 194L241 194L240 189M240 198L240 203L241 203L240 198z"/>
<path style="fill:#75b3fd; stroke:none;" d="M240.333 203.667L240.667 204.333L240.333 203.667z"/>
<path style="fill:#517ec7; stroke:none;" d="M270 204L270 207L271 207L270 204M239.333 206.667L239.667 207.333L239.333 206.667M238.333 209.667L238.667 210.333L238.333 209.667M269.333 210.667L269.667 211.333L269.333 210.667z"/>
<path style="fill:#75b3fd; stroke:none;" d="M238 211L239 212L238 211z"/>
<path style="fill:#517ec7; stroke:none;" d="M312.667 211.333L313.333 211.667L312.667 211.333M408.667 211.333L409.333 211.667L408.667 211.333M309 212L310 213L309 212M412 212L413 213L412 212M237 213L238 214L237 213M268.333 214.667L268.667 215.333L268.333 214.667M306 214L307 215L306 214M415 214L416 215L415 214M236 215L237 216L236 215M305 215L306 216L305 215M416 215L417 216L416 215M304 216L305 217L304 216M417 216L418 217L417 216z"/>
<path style="fill:#75b3fd; stroke:none;" d="M235 217L236 218L235 217z"/>
<path style="fill:#517ec7; stroke:none;" d="M267.333 218.667L267.667 219.333L267.333 218.667z"/>
<path style="fill:#75b3fd; stroke:none;" d="M234 219L235 220L234 219z"/>
<path style="fill:#517ec7; stroke:none;" d="M302 219L303 220L302 219M419 219L420 220L419 219M233 220L234 221L233 220z"/>
<path style="fill:#75b3fd; stroke:none;" d="M233 221L234 222L233 221z"/>
<path style="fill:#517ec7; stroke:none;" d="M266 221L267 222L266 221z"/>
<path style="fill:#75b3fd; stroke:none;" d="M232 222L233 223L232 222z"/>
<path style="fill:#517ec7; stroke:none;" d="M301.333 222.667L301.667 223.333L301.333 222.667M420.333 222.667L420.667 223.333L420.333 222.667M231 223L232 224L231 223M230 224L231 225L230 224M229 225L230 226L229 225M264 226L265 227L264 226z"/>
<path style="fill:#75b3fd; stroke:none;" d="M228 227L229 228L228 227M227 228L228 229L227 228z"/>
<path style="fill:#517ec7; stroke:none;" d="M263 228L264 229L263 228M301.333 228.667L301.667 229.333L301.333 228.667M420.333 228.667L420.667 229.333L420.333 228.667M225 229L226 230L225 229M224 230L225 231L224 230M223 231L224 232L223 231z"/>
<path style="fill:#75b3fd; stroke:none;" d="M222 232L223 233L222 232z"/>
<path style="fill:#517ec7; stroke:none;" d="M261 232L262 233L261 232M302 232L303 233L302 232M419 232L420 233L419 232M220 233L221 234L220 233z"/>
<path style="fill:#75b3fd; stroke:none;" d="M221 233L222 234L221 233M219 234L220 235L219 234z"/>
<path style="fill:#517ec7; stroke:none;" d="M260 234L261 235L260 234z"/>
<path style="fill:#75b3fd; stroke:none;" d="M217 235L218 236L217 235z"/>
<path style="fill:#517ec7; stroke:none;" d="M259 235L260 236L259 235M304 235L305 236L304 235M417 235L418 236L417 235M215 236L216 237L215 236M305 236L306 237L305 236M416 236L417 237L416 236M213 237L214 238L213 237M258 237L259 238L258 237M306 237L307 238L306 237M415 237L416 238L415 237M209.667 238.333L210.333 238.667L209.667 238.333z"/>
<path style="fill:#75b3fd; stroke:none;" d="M211 238L212 239L211 238z"/>
<path style="fill:#517ec7; stroke:none;" d="M206.667 239.333L207.333 239.667L206.667 239.333M309 239L310 240L309 239M412 239L413 240L412 239M198 240L198 241L203 241L198 240z"/>
<path style="fill:#75b3fd; stroke:none;" d="M203.667 240.333L204.333 240.667L203.667 240.333z"/>
<path style="fill:#517ec7; stroke:none;" d="M256 240L257 241L256 240M312.667 240.333L313.333 240.667L312.667 240.333M408.667 240.333L409.333 240.667L408.667 240.333M255 241L256 242L255 241z"/>
<path style="fill:#75b3fd; stroke:none;" d="M254 242L255 243L254 242M253 243L254 244L253 243z"/>
<path style="fill:#517ec7; stroke:none;" d="M251 246L252 247L251 246M250 247L251 248L250 247M249 248L250 249L249 248M248 249L249 250L248 249M247 250L248 251L247 250M246 251L247 252L246 251M245 252L246 253L245 252z"/>
<path style="fill:#75b3fd; stroke:none;" d="M243 253L244 254L243 253M242 254L243 255L242 254z"/>
<path style="fill:#517ec7; stroke:none;" d="M241 255L242 256L241 255z"/>
<path style="fill:#75b3fd; stroke:none;" d="M239 256L240 257L239 256z"/>
<path style="fill:#517ec7; stroke:none;" d="M240 256L241 257L240 256z"/>
<path style="fill:#75b3fd; stroke:none;" d="M238 257L239 258L238 257z"/>
<path style="fill:#517ec7; stroke:none;" d="M237 258L238 259L237 258z"/>
<path style="fill:#75b3fd; stroke:none;" d="M235 259L236 260L235 259M233 260L234 261L233 260z"/>
<path style="fill:#517ec7; stroke:none;" d="M234 260L235 261L234 260M232 261L233 262L232 261M230 262L231 263L230 262M228 263L229 264L228 263z"/>
<path style="fill:#75b3fd; stroke:none;" d="M225 264L226 265L225 264z"/>
<path style="fill:#517ec7; stroke:none;" d="M226 264L227 265L226 264z"/>
<path style="fill:#75b3fd; stroke:none;" d="M223 265L224 266L223 265z"/>
<path style="fill:#517ec7; stroke:none;" d="M224 265L225 266L224 265z"/>
<path style="fill:#75b3fd; stroke:none;" d="M220 266L221 267L220 266z"/>
<path style="fill:#517ec7; stroke:none;" d="M221 266L222 267L221 266z"/>
<path style="fill:#75b3fd; stroke:none;" d="M217 267L218 268L217 267z"/>
<path style="fill:#517ec7; stroke:none;" d="M218 267L219 268L218 267M214.667 268.333L215.333 268.667L214.667 268.333z"/>
<path style="fill:#75b3fd; stroke:none;" d="M208 269L209 270L208 269z"/>
<path style="fill:#517ec7; stroke:none;" d="M209 269L209 270L212 270L209 269z"/>
<path style="fill:#75b3fd; stroke:none;" d="M198 270L198 271L202 271L198 270z"/>
<path style="fill:#517ec7; stroke:none;" d="M202 270L202 271L206 271L202 270z"/>
<path style="fill:#75b3fd; stroke:none;" d="M91.3333 377.667L91.6667 378.333L91.3333 377.667M120.333 377.667L120.667 378.333L120.333 377.667z"/>
<path style="fill:#517ec7; stroke:none;" d="M331.333 378.667L331.667 379.333L331.333 378.667M360.333 378.667L360.667 379.333L360.333 378.667M91.3333 379.667L91.6667 380.333L91.3333 379.667M120.333 379.667L120.667 380.333L120.333 379.667M92 382L93 383L92 382M119 382L120 383L119 382M332 382L333 383L332 382M359 382L360 383L359 382M93 384L94 385L93 384M118 384L119 385L118 384M94 385L95 386L94 385M117 385L118 386L117 385M334 385L335 386L334 385M357 385L358 386L357 385z"/>
<path style="fill:#75b3fd; stroke:none;" d="M95 386L96 387L95 386M116 386L117 387L116 386z"/>
<path style="fill:#517ec7; stroke:none;" d="M335 386L336 387L335 386M356 386L357 387L356 386M96 387L97 388L96 387M115 387L116 388L115 387M336 387L337 388L336 387M355 387L356 388L355 387M97 388L98 389L97 388M114 388L115 389L114 388M99 389L100 390L99 389M112 389L113 390L112 389M339 389L340 390L339 389M352 389L353 390L352 389M101.667 390.333L102.333 390.667L101.667 390.333z"/>
<path style="fill:#75b3fd; stroke:none;" d="M103.667 390.333L104.333 390.667L103.667 390.333M107.667 390.333L108.333 390.667L107.667 390.333z"/>
<path style="fill:#517ec7; stroke:none;" d="M109.667 390.333L110.333 390.667L109.667 390.333M342.667 390.333L343.333 390.667L342.667 390.333M348.667 390.333L349.333 390.667L348.667 390.333M30.3333 469.667L30.6667 470.333L30.3333 469.667z"/>
<path style="fill:#75b3fd; stroke:none;" d="M30 471L31 472L30 471z"/>
<path style="fill:#517ec7; stroke:none;" d="M481 471L482 472L481 471M31 473L32 474L31 473M32 475L33 476L32 475M479 475L480 476L479 475M33 476L34 477L33 476z"/>
<path style="fill:#ffffff; stroke:none;" d="M0 477L0 512L35 512L35 511C15.0733 506.388 9.69682 492.41 0 477z"/>
<path style="fill:#517ec7; stroke:none;" d="M34 477L35 478L34 477z"/>
<path style="fill:#ffffff; stroke:none;" d="M511 477C507.123 493.753 493.753 507.122 477 511L477 512L512 512L511 477z"/>
<path style="fill:#517ec7; stroke:none;" d="M35 478L36 479L35 478M36 479L37 480L36 479M475 479L476 480L475 479M38 480L39 481L38 480z"/>
<path style="fill:#75b3fd; stroke:none;" d="M40 481L41 482L40 481z"/>
<path style="fill:#517ec7; stroke:none;" d="M41.6667 481.333L42.3333 481.667L41.6667 481.333M471 481L472 482L471 481z"/>
</svg>
